Coordinates
version=1
nRows=13
nColumns=36
inDegrees=yes

Units are S.I. units (second, meters, Newtons, ...)
If the header above contains a line with 'inDegrees', this indicates whether rotational values are in degrees (yes) or radians (no).

endheader
time	pelvis_tilt	pelvis_list	pelvis_rotation	pelvis_tx	pelvis_ty	pelvis_tz	hip_flexion_r	hip_adduction_r	hip_rotation_r	knee_angle_r	knee_angle_r_beta	ankle_angle_r	subtalar_angle_r	mtp_angle_r	hip_flexion_l	hip_adduction_l	hip_rotation_l	knee_angle_l	knee_angle_l_beta	ankle_angle_l	subtalar_angle_l	mtp_angle_l	lumbar_extension	lumbar_bending	lumbar_rotation	arm_flex_r	arm_add_r	arm_rot_r	elbow_flex_r	pro_sup_r	arm_flex_l	arm_add_l	arm_rot_l	elbow_flex_l	pro_sup_l
      4.48333330	    -19.31787887	     -4.28949817	     -8.79316205	      1.62396912	      0.83294699	      0.12032952	     50.64747069	      8.07753822	     -8.08493975	     56.47764545	      0.98572087	     32.10848820	     10.13073582	     -7.49999987	     74.61341673	    -14.68766077	      2.31168307	     40.68094651	      0.71001646	     12.38101706	      3.48847700	     -7.49999987	     -6.04282719	     12.34314507	      6.99180045	     56.26847761	     -4.25751343	     68.57730988	    126.89852013	    101.36295780	     49.14338169	      6.26476011	     66.63960490	    123.28772379	    107.41384504
      4.50000000	    -19.25145903	     -4.36970616	     -9.16076654	      1.61830236	      0.82615295	      0.12244304	     51.81421748	      8.76316906	     -7.51582101	     58.67495812	      1.02407121	     32.91962711	      9.45173320	     -7.49999987	     75.82709522	    -14.96699595	      2.89815725	     41.20260095	      0.71912105	     11.63513577	      3.50508345	     -7.49999987	     -6.78217061	     12.49488039	      7.55799639	     56.98758148	     -4.32638827	     68.62326375	    126.52840046	    101.14878360	     49.55991729	      6.09663279	     66.26590253	    122.98056284	    107.70037080
      4.51666670	    -19.78745645	     -4.32787596	     -9.55918282	      1.61745372	      0.81550507	      0.12305869	     53.67338264	      9.45949129	     -6.95994297	     60.99287932	      1.06452656	     33.74469683	      8.54432108	     -7.49999987	     77.58374942	    -15.08266388	      3.52636123	     42.05791786	      0.73404914	     10.83209641	      3.63053171	     -7.49999987	     -6.77738749	     12.59045256	      7.79111397	     56.86239922	     -4.36318888	     68.97104784	    126.01906104	    100.92636174	     49.17028656	      5.89841698	     66.44912793	    123.10243039	    107.60747583
      4.53333330	    -19.87079940	     -4.34331902	     -9.71556472	      1.61675600	      0.80224641	      0.12435669	     55.16502169	      9.91736018	     -6.69286888	     63.57291904	      1.10955675	     34.87757981	      8.13208834	     -7.49999987	     78.99817618	    -15.13749681	      4.42530649	     43.07304496	      0.75176645	     10.45876603	      3.55029508	     -7.49999987	     -7.07300420	     12.74568269	      7.95622552	     57.13299243	     -4.99912620	     68.02806633	    125.62504797	    101.23583288	     49.49214773	      6.03121204	     64.44661029	    122.13797624	    107.81061304
      4.55000000	    -19.82406750	     -4.31451094	     -9.67072159	      1.61582284	      0.80356380	      0.12447471	     55.96490946	     10.27297443	     -6.22160759	     65.23334020	      1.13853657	     35.37400884	      7.14415201	     -7.49999987	     79.70668761	    -14.92437754	      5.31526011	     43.40944796	      0.75763779	      9.98888116	      2.86574136	     -7.49999987	     -8.01696559	     12.90097034	      8.00231713	     57.25060962	     -5.97515768	     68.77271636	    125.48675714	    101.29626131	     49.21963471	      5.55473570	     63.48069695	    120.86341419	    107.77557434
      4.56666670	    -20.10584931	     -4.44351488	     -9.56238498	      1.61982033	      0.79546854	      0.12935042	     56.77379847	     10.77429608	     -5.99005928	     66.61020262	      1.16256735	     36.21085557	      6.51153389	     -7.49999987	     80.62585866	    -14.84669773	      6.25728992	     43.70493149	      0.76279495	      9.53936666	      2.16594713	     -7.49999987	     -8.23228990	     12.93378731	      8.03179309	     56.79185345	     -6.16020467	     69.81698505	    125.79337164	    101.47923700	     48.60215225	      5.56559029	     64.22347458	    120.67331271	    108.00914665
      4.58333330	    -20.13116552	     -4.48557997	     -9.46404159	      1.61462710	      0.78793185	      0.12555023	     57.62241262	     10.99089221	     -5.85911676	     68.18353102	      1.19002711	     36.76545366	      5.97084874	     -7.49999987	     81.40315073	    -14.75045876	      6.89134304	     44.07778096	      0.76930240	      9.02218663	      1.89003442	     -7.49999987	     -8.84860242	     12.94963292	      8.10310198	     57.47543296	     -5.97642794	     69.98356464	    125.77488366	    101.44545887	     49.27837238	      5.76133217	     63.66501207	    120.32612582	    107.84806483
      4.60000000	    -20.49834555	     -4.57085909	     -9.43937445	      1.60649625	      0.78363520	      0.12422171	     59.05766262	     10.95956360	     -6.06905868	     69.74091195	      1.21720854	     36.91812504	      5.89472057	     -7.49999987	     82.52964510	    -14.44108096	      7.88302893	     43.92065017	      0.76655995	      8.03485676	      1.24120293	     -7.49999987	     -9.69947390	     13.29654113	      8.34747832	     58.47964172	     -7.07620309	     70.50968685	    125.35272445	    101.49431519	     49.65593007	      5.14152650	     63.56717865	    119.68082196	    107.85557888
      4.61666670	    -20.96991243	     -4.79975421	     -9.29189012	      1.60637830	      0.77247729	      0.12416906	     60.70745247	     10.89509469	     -6.58742560	     71.58119946	      1.24932761	     37.40283558	      6.05390815	     -7.49999987	     83.95645454	    -14.22550317	      9.04077686	     44.21004183	      0.77161079	      7.36359118	      0.61277747	     -7.49999987	    -10.02951964	     13.74198674	      8.52642650	     59.09992502	     -7.65892711	     69.56432857	    125.25236107	    101.40752770	     50.14105567	      5.49912423	     62.89089119	    119.44670972	    107.69664916
      4.63333330	    -21.21093994	     -4.90091048	     -9.37117896	      1.60644828	      0.76793528	      0.12354804	     61.79528499	     10.82371207	     -6.88193880	     73.05820759	      1.27510627	     37.91906598	      6.64533563	     -7.49999987	     84.97709384	    -13.99725036	      9.96846063	     44.32740868	      0.77365923	      7.12263075	      0.31568867	     -7.49999987	    -10.57500705	     14.12329985	      8.60238527	     59.69874281	     -7.27474524	     69.61648544	    124.80537067	    101.47322916	     50.54060530	      6.07834897	     62.77138752	    120.01037340	    108.23733439
      4.65000000	    -21.26281689	     -5.08319030	     -9.43062587	      1.60578229	      0.76249990	      0.12363091	     62.68186003	     10.72181796	     -7.34445489	     74.55988963	      1.30131556	     38.35673774	      7.19418255	     -7.49999987	     85.67767543	    -13.88646204	     10.69037840	     44.45371960	      0.77586377	      7.17528820	      0.65430244	     -7.49999987	    -11.34781134	     14.40591797	      8.82582858	     60.43679271	     -7.46765505	     69.45341135	    125.06126170	    100.67690992	     50.92454209	      6.21282205	     62.15579135	    119.98573024	    107.79132478
      4.66666670	    -21.55714625	     -5.27490488	     -9.60123737	      1.60547642	      0.75687533	      0.12356331	     63.57919618	     10.78091137	     -7.72880202	     75.67649188	      1.32080395	     38.59986306	      7.40234471	     -7.49999987	     86.46965140	    -13.84093860	     11.16690137	     44.52619133	      0.77712864	      7.06380034	      1.18106107	     -7.49999987	    -11.73145807	     14.87758796	      9.16191262	     60.62104407	     -7.91926719	     70.19235768	    125.09482249	    100.30551850	     50.54460148	      6.10681524	     62.00318158	    119.56264906	    107.85328795
      4.68333330	    -21.87761727	     -5.33229275	     -9.73097657	      1.60463936	      0.75120107	      0.12388121	     64.39567891	     10.68747006	     -8.08138376	     76.69810482	      1.33863446	     39.05358436	      7.73942494	     -7.49999987	     87.19186565	    -13.77353599	     11.67459102	     44.73926853	      0.78084754	      6.92229636	      1.56559513	     -7.49999987	    -12.43024688	     15.11626053	      9.53521854	     60.30283111	     -8.18839597	     70.67936569	    124.58836147	     99.51805141	     50.21710738	      5.81443127	     62.28181209	    119.32625584	    107.16171642
